<svg version="1.1" xmlns="http://www.w3.org/2000/svg" xmlns:xlink="http://www.w3.org/1999/xlink" width="358.005" height="361.005" viewBox="0,0,358.005,361.005"><g transform="translate(-60.9975,0.5025)"><g data-paper-data="{&quot;isPaintingLayer&quot;:true}" stroke-miterlimit="10" stroke-dasharray="" stroke-dashoffset="0" style="mix-blend-mode: normal"><path d="M319.5,141c0,23.74824 -16.34161,43 -36.5,43c-20.15839,0 -36.5,-19.25176 -36.5,-43c0,-23.74824 16.34161,-43 36.5,-43c20.15839,0 36.5,19.25176 36.5,43z" fill="#ffffff" fill-rule="nonzero" stroke="#000000" stroke-width="3" stroke-linecap="butt" stroke-linejoin="miter"/><path d="M299.19697,134.75883c0,0.37949 -0.02919,0.75899 -0.05839,1.13848c-1.02172,11.61839 -17.45677,20.75545 -17.45677,20.75545c0,0 -16.43505,-9.13707 -17.45677,-20.75545c-0.02919,-0.37949 -0.05839,-0.75899 -0.05839,-1.13848c0,-5.63404 4.58313,-10.21717 10.21717,-10.21717c2.86081,0 5.45889,1.16768 7.29798,3.09434c1.83909,-1.92667 4.43717,-3.09434 7.29798,-3.09434c5.63404,0 10.21717,4.58313 10.21717,10.21717" fill="#ff6680" fill-rule="evenodd" stroke="#ff6680" stroke-width="0.5" stroke-linecap="round" stroke-linejoin="round"/><path d="M61,360.5v-361h358v361z" fill="none" fill-rule="nonzero" stroke="#000000" stroke-width="0.005" stroke-linecap="butt" stroke-linejoin="miter"/></g></g></svg>
