<svg version="1.1" xmlns="http://www.w3.org/2000/svg" xmlns:xlink="http://www.w3.org/1999/xlink" width="358.005" height="361.005" viewBox="0,0,358.005,361.005"><g transform="translate(-60.9975,0.5025)"><g data-paper-data="{&quot;isPaintingLayer&quot;:true}" stroke-linecap="butt" stroke-linejoin="miter" stroke-miterlimit="10" stroke-dasharray="" stroke-dashoffset="0" style="mix-blend-mode: normal"><path d="M319.5,141c0,23.74824 -16.34161,43 -36.5,43c-20.15839,0 -36.5,-19.25176 -36.5,-43c0,-23.74824 16.34161,-43 36.5,-43c20.15839,0 36.5,19.25176 36.5,43z" fill="#ffffff" fill-rule="nonzero" stroke="#000000" stroke-width="3"/><path d="M280.92311,151.00514l-9.9772,5.24337c-0.87531,0.46302 -1.90072,-0.2812 -1.7337,-1.25799l1.90495,-11.11044c0.06766,-0.38691 -0.06131,-0.78228 -0.34251,-1.05713l-8.07225,-7.86717c-0.70828,-0.69136 -0.31714,-1.89438 0.66176,-2.03815l11.15484,-1.61952c0.38902,-0.05708 0.72519,-0.30023 0.89856,-0.65331l4.98966,-10.10828c0.43765,-0.88799 1.70409,-0.88799 2.14386,0l4.98754,10.10828c0.17337,0.35308 0.50954,0.59622 0.89856,0.65331l11.15484,1.61952c0.9789,0.14377 1.37215,1.34678 0.66176,2.03815l-8.07014,7.86717c-0.28331,0.27486 -0.41017,0.67022 -0.34462,1.05713l1.90495,11.11044c0.16914,0.97679 -0.85628,1.72101 -1.73158,1.25799l-9.9772,-5.24337c-0.34885,-0.18394 -0.76325,-0.18394 -1.1121,0z" fill="#ffbf00" fill-rule="evenodd" stroke="none" stroke-width="1"/><path d="M61,360.5v-361h358v361z" fill="none" fill-rule="nonzero" stroke="#000000" stroke-width="0.005"/></g></g></svg>