<svg version="1.1" xmlns="http://www.w3.org/2000/svg" xmlns:xlink="http://www.w3.org/1999/xlink" width="358.005" height="361.005" viewBox="0,0,358.005,361.005"><g transform="translate(-60.9975,0.5025)"><g data-paper-data="{&quot;isPaintingLayer&quot;:true}" fill-rule="nonzero" stroke="#000000" stroke-linecap="butt" stroke-linejoin="miter" stroke-miterlimit="10" stroke-dasharray="" stroke-dashoffset="0" style="mix-blend-mode: normal"><path d="M61,360.5v-361h358v361z" fill="none" stroke-width="0.005"/><path d="M207.5,139c0,23.74824 -16.34161,43 -36.5,43c-20.15839,0 -36.5,-19.25176 -36.5,-43c0,-23.74824 16.34161,-43 36.5,-43c20.15839,0 36.5,19.25176 36.5,43z" fill="#ffffff" stroke-width="3"/><path d="M183.5339,139c0,5.15466 -4.03702,9.33333 -9.01695,9.33333c-4.97993,0 -9.01695,-4.17867 -9.01695,-9.33333c0,-5.15466 4.03703,-9.33334 9.01695,-9.33334c4.97993,0 9.01695,4.17867 9.01695,9.33334z" fill="#000000" stroke-width="3"/></g></g></svg>
